<svg width="1922" height="1559" viewBox="0 0 1922 1559" fill="none" xmlns="http://www.w3.org/2000/svg">
<rect width="1922" height="1559" fill="#F0F0F0"/>
<rect x="30" y="34" width="1000" height="1500" fill="white"/>
<rect x="30" y="34" width="1000" height="92" fill="#C4C4C4"/>
<rect x="632" y="171" width="379" height="308" fill="#C4C4C4"/>
<rect x="49" y="185" width="418" height="68" fill="#C4C4C4" fill-opacity="0.66"/>
<rect x="52" y="312" width="365" height="28" fill="#C4C4C4" fill-opacity="0.33"/>
<rect x="132" y="830" width="217" height="28" fill="#C4C4C4" fill-opacity="0.33"/>
<rect x="132" y="873" width="217" height="28" fill="#C4C4C4" fill-opacity="0.33"/>
<rect x="422" y="830" width="217" height="28" fill="#C4C4C4" fill-opacity="0.33"/>
<rect x="422" y="873" width="217" height="28" fill="#C4C4C4" fill-opacity="0.33"/>
<rect x="712" y="830" width="217" height="28" fill="#C4C4C4" fill-opacity="0.33"/>
<rect x="712" y="873" width="217" height="28" fill="#C4C4C4" fill-opacity="0.33"/>
<rect x="52" y="355" width="365" height="28" fill="#C4C4C4" fill-opacity="0.33"/>
<rect x="52" y="398" width="365" height="28" fill="#C4C4C4" fill-opacity="0.33"/>
<rect x="52" y="441" width="365" height="28" fill="#C4C4C4" fill-opacity="0.33"/>
<rect x="132" y="581" width="217" height="217" fill="#C4C4C4"/>
<rect x="422" y="581" width="217" height="217" fill="#C4C4C4"/>
<rect x="712" y="581" width="217" height="217" fill="#C4C4C4"/>
<rect x="52" y="1039" width="213" height="213" fill="#C4C4C4"/>
<rect x="311" y="1039" width="429" height="213" fill="#C4C4C4"/>
<rect x="786" y="1039" width="225" height="213" fill="#C4C4C4"/>
<rect x="515" y="1298" width="153" height="213" fill="#C4C4C4"/>
<rect x="714" y="1298" width="297" height="213" fill="#C4C4C4"/>
<rect x="52" y="1298" width="417" height="213" fill="#C4C4C4"/>
<line x1="1.74846e-07" y1="536" x2="1922" y2="536" stroke="black" stroke-opacity="0.25" stroke-width="4" stroke-dasharray="25 25"/>
<line x1="1.74846e-07" y1="147" x2="1922" y2="147" stroke="black" stroke-opacity="0.25" stroke-width="4" stroke-dasharray="25 25"/>
<line x1="1.74846e-07" y1="973" x2="1922" y2="973" stroke="black" stroke-opacity="0.25" stroke-width="4" stroke-dasharray="25 25"/>
<path d="M1099.31 71.625H1120.12V52.75H1127.41V101H1120.12V78.4688H1099.31V101H1092.03V52.75H1099.31V71.625ZM1165.34 87.4375H1143.53C1143.72 89.9375 1144.53 91.9271 1145.97 93.4062C1147.41 94.8646 1149.25 95.5938 1151.5 95.5938C1153.25 95.5938 1154.7 95.1771 1155.84 94.3438C1156.97 93.5104 1158.25 91.9688 1159.69 89.7188L1165.62 93.0312C1164.71 94.5938 1163.74 95.9375 1162.72 97.0625C1161.7 98.1667 1160.6 99.0833 1159.44 99.8125C1158.27 100.521 1157.01 101.042 1155.66 101.375C1154.3 101.708 1152.83 101.875 1151.25 101.875C1146.71 101.875 1143.06 100.417 1140.31 97.5C1137.56 94.5625 1136.19 90.6667 1136.19 85.8125C1136.19 81 1137.52 77.1042 1140.19 74.125C1142.88 71.1875 1146.44 69.7188 1150.88 69.7188C1155.35 69.7188 1158.9 71.1458 1161.5 74C1164.08 76.8333 1165.38 80.7604 1165.38 85.7812L1165.34 87.4375ZM1158.12 81.6875C1157.15 77.9375 1154.78 76.0625 1151.03 76.0625C1150.18 76.0625 1149.38 76.1979 1148.62 76.4688C1147.88 76.7188 1147.19 77.0938 1146.56 77.5938C1145.96 78.0729 1145.44 78.6562 1145 79.3438C1144.56 80.0312 1144.23 80.8125 1144 81.6875H1158.12ZM1195.5 70.5625H1202.56V101H1195.5V97.8125C1192.6 100.521 1189.49 101.875 1186.16 101.875C1181.95 101.875 1178.47 100.354 1175.72 97.3125C1172.99 94.2083 1171.62 90.3333 1171.62 85.6875C1171.62 81.125 1172.99 77.3229 1175.72 74.2812C1178.45 71.2396 1181.86 69.7188 1185.97 69.7188C1189.51 69.7188 1192.69 71.1771 1195.5 74.0938V70.5625ZM1178.81 85.6875C1178.81 88.6042 1179.59 90.9792 1181.16 92.8125C1182.76 94.6667 1184.78 95.5938 1187.22 95.5938C1189.82 95.5938 1191.93 94.6979 1193.53 92.9062C1195.14 91.0521 1195.94 88.6979 1195.94 85.8438C1195.94 82.9896 1195.14 80.6354 1193.53 78.7812C1191.93 76.9688 1189.84 76.0625 1187.28 76.0625C1184.86 76.0625 1182.84 76.9792 1181.22 78.8125C1179.61 80.6667 1178.81 82.9583 1178.81 85.6875ZM1233.88 48.2188H1240.94V101H1233.88V97.8125C1231.1 100.521 1227.97 101.875 1224.47 101.875C1220.3 101.875 1216.84 100.354 1214.09 97.3125C1211.36 94.2083 1210 90.3333 1210 85.6875C1210 81.1458 1211.36 77.3542 1214.09 74.3125C1216.8 71.25 1220.21 69.7188 1224.31 69.7188C1227.88 69.7188 1231.06 71.1771 1233.88 74.0938V48.2188ZM1217.19 85.6875C1217.19 88.6042 1217.97 90.9792 1219.53 92.8125C1221.14 94.6667 1223.16 95.5938 1225.59 95.5938C1228.2 95.5938 1230.3 94.6979 1231.91 92.9062C1233.51 91.0521 1234.31 88.6979 1234.31 85.8438C1234.31 82.9896 1233.51 80.6354 1231.91 78.7812C1230.3 76.9688 1228.22 76.0625 1225.66 76.0625C1223.24 76.0625 1221.22 76.9792 1219.59 78.8125C1217.99 80.6667 1217.19 82.9583 1217.19 85.6875ZM1277.53 87.4375H1255.72C1255.91 89.9375 1256.72 91.9271 1258.16 93.4062C1259.59 94.8646 1261.44 95.5938 1263.69 95.5938C1265.44 95.5938 1266.89 95.1771 1268.03 94.3438C1269.16 93.5104 1270.44 91.9688 1271.88 89.7188L1277.81 93.0312C1276.9 94.5938 1275.93 95.9375 1274.91 97.0625C1273.89 98.1667 1272.79 99.0833 1271.62 99.8125C1270.46 100.521 1269.2 101.042 1267.84 101.375C1266.49 101.708 1265.02 101.875 1263.44 101.875C1258.9 101.875 1255.25 100.417 1252.5 97.5C1249.75 94.5625 1248.38 90.6667 1248.38 85.8125C1248.38 81 1249.71 77.1042 1252.38 74.125C1255.06 71.1875 1258.62 69.7188 1263.06 69.7188C1267.54 69.7188 1271.08 71.1458 1273.69 74C1276.27 76.8333 1277.56 80.7604 1277.56 85.7812L1277.53 87.4375ZM1270.31 81.6875C1269.33 77.9375 1266.97 76.0625 1263.22 76.0625C1262.36 76.0625 1261.56 76.1979 1260.81 76.4688C1260.06 76.7188 1259.38 77.0938 1258.75 77.5938C1258.15 78.0729 1257.62 78.6562 1257.19 79.3438C1256.75 80.0312 1256.42 80.8125 1256.19 81.6875H1270.31ZM1285.25 70.5625H1292.28V73.2812C1293.57 71.9271 1294.72 71 1295.72 70.5C1296.74 69.9792 1297.95 69.7188 1299.34 69.7188C1301.2 69.7188 1303.14 70.3229 1305.16 71.5312L1301.94 77.9688C1300.6 77.0104 1299.3 76.5312 1298.03 76.5312C1294.2 76.5312 1292.28 79.4271 1292.28 85.2188V101H1285.25V70.5625Z" fill="black"/>
<path d="M1099.06 307.75V356H1091.78V307.75H1099.06ZM1109.31 325.562H1116.34V328.375C1117.7 326.958 1118.85 326 1119.81 325.5C1120.83 324.979 1122.11 324.719 1123.66 324.719C1127.09 324.719 1129.81 326.219 1131.81 329.219C1134.02 326.219 1137.01 324.719 1140.78 324.719C1147.64 324.719 1151.06 328.875 1151.06 337.188V356H1144V339.094C1144 336.177 1143.65 334.115 1142.94 332.906C1142.21 331.677 1141.01 331.062 1139.34 331.062C1137.41 331.062 1135.99 331.792 1135.09 333.25C1134.22 334.708 1133.78 337.052 1133.78 340.281V356H1126.72V339.188C1126.72 333.771 1125.16 331.062 1122.03 331.062C1120.05 331.062 1118.6 331.802 1117.69 333.281C1116.79 334.76 1116.34 337.094 1116.34 340.281V356H1109.31V325.562ZM1182.38 325.562H1189.44V356H1182.38V352.812C1179.48 355.521 1176.36 356.875 1173.03 356.875C1168.82 356.875 1165.34 355.354 1162.59 352.312C1159.86 349.208 1158.5 345.333 1158.5 340.688C1158.5 336.125 1159.86 332.323 1162.59 329.281C1165.32 326.24 1168.74 324.719 1172.84 324.719C1176.39 324.719 1179.56 326.177 1182.38 329.094V325.562ZM1165.69 340.688C1165.69 343.604 1166.47 345.979 1168.03 347.812C1169.64 349.667 1171.66 350.594 1174.09 350.594C1176.7 350.594 1178.8 349.698 1180.41 347.906C1182.01 346.052 1182.81 343.698 1182.81 340.844C1182.81 337.99 1182.01 335.635 1180.41 333.781C1178.8 331.969 1176.72 331.062 1174.16 331.062C1171.74 331.062 1169.72 331.979 1168.09 333.812C1166.49 335.667 1165.69 337.958 1165.69 340.688ZM1227.75 355.281C1227.75 356.719 1227.7 357.979 1227.59 359.062C1227.51 360.167 1227.39 361.135 1227.22 361.969C1226.72 364.26 1225.74 366.229 1224.28 367.875C1221.53 371.042 1217.75 372.625 1212.94 372.625C1208.88 372.625 1205.53 371.531 1202.91 369.344C1200.2 367.094 1198.64 363.979 1198.22 360H1205.28C1205.55 361.5 1206 362.656 1206.62 363.469C1208.08 365.365 1210.21 366.312 1213 366.312C1218.15 366.312 1220.72 363.156 1220.72 356.844V352.594C1217.93 355.448 1214.71 356.875 1211.06 356.875C1206.92 356.875 1203.52 355.375 1200.88 352.375C1198.21 349.333 1196.88 345.531 1196.88 340.969C1196.88 336.531 1198.11 332.76 1200.59 329.656C1203.26 326.365 1206.78 324.719 1211.16 324.719C1214.99 324.719 1218.18 326.146 1220.72 329V325.562H1227.75V355.281ZM1221 340.844C1221 337.885 1220.21 335.521 1218.62 333.75C1217.02 331.938 1214.97 331.031 1212.47 331.031C1209.8 331.031 1207.7 332.021 1206.16 334C1204.76 335.771 1204.06 338.062 1204.06 340.875C1204.06 343.646 1204.76 345.917 1206.16 347.688C1207.68 349.625 1209.78 350.594 1212.47 350.594C1215.16 350.594 1217.28 349.615 1218.84 347.656C1220.28 345.885 1221 343.615 1221 340.844ZM1264.34 342.438H1242.53C1242.72 344.938 1243.53 346.927 1244.97 348.406C1246.41 349.865 1248.25 350.594 1250.5 350.594C1252.25 350.594 1253.7 350.177 1254.84 349.344C1255.97 348.51 1257.25 346.969 1258.69 344.719L1264.62 348.031C1263.71 349.594 1262.74 350.938 1261.72 352.062C1260.7 353.167 1259.6 354.083 1258.44 354.812C1257.27 355.521 1256.01 356.042 1254.66 356.375C1253.3 356.708 1251.83 356.875 1250.25 356.875C1245.71 356.875 1242.06 355.417 1239.31 352.5C1236.56 349.562 1235.19 345.667 1235.19 340.812C1235.19 336 1236.52 332.104 1239.19 329.125C1241.88 326.188 1245.44 324.719 1249.88 324.719C1254.35 324.719 1257.9 326.146 1260.5 329C1263.08 331.833 1264.38 335.76 1264.38 340.781L1264.34 342.438ZM1257.12 336.688C1256.15 332.938 1253.78 331.062 1250.03 331.062C1249.18 331.062 1248.38 331.198 1247.62 331.469C1246.88 331.719 1246.19 332.094 1245.56 332.594C1244.96 333.073 1244.44 333.656 1244 334.344C1243.56 335.031 1243.23 335.812 1243 336.688H1257.12ZM1280.69 326.625H1301.5V307.75H1308.78V356H1301.5V333.469H1280.69V356H1273.41V307.75H1280.69V326.625ZM1346.72 342.438H1324.91C1325.09 344.938 1325.91 346.927 1327.34 348.406C1328.78 349.865 1330.62 350.594 1332.88 350.594C1334.62 350.594 1336.07 350.177 1337.22 349.344C1338.34 348.51 1339.62 346.969 1341.06 344.719L1347 348.031C1346.08 349.594 1345.11 350.938 1344.09 352.062C1343.07 353.167 1341.98 354.083 1340.81 354.812C1339.65 355.521 1338.39 356.042 1337.03 356.375C1335.68 356.708 1334.21 356.875 1332.62 356.875C1328.08 356.875 1324.44 355.417 1321.69 352.5C1318.94 349.562 1317.56 345.667 1317.56 340.812C1317.56 336 1318.9 332.104 1321.56 329.125C1324.25 326.188 1327.81 324.719 1332.25 324.719C1336.73 324.719 1340.27 326.146 1342.88 329C1345.46 331.833 1346.75 335.76 1346.75 340.781L1346.72 342.438ZM1339.5 336.688C1338.52 332.938 1336.16 331.062 1332.41 331.062C1331.55 331.062 1330.75 331.198 1330 331.469C1329.25 331.719 1328.56 332.094 1327.94 332.594C1327.33 333.073 1326.81 333.656 1326.38 334.344C1325.94 335.031 1325.6 335.812 1325.38 336.688H1339.5ZM1354.44 325.562H1361.47V328.281C1362.76 326.927 1363.91 326 1364.91 325.5C1365.93 324.979 1367.14 324.719 1368.53 324.719C1370.39 324.719 1372.32 325.323 1374.34 326.531L1371.12 332.969C1369.79 332.01 1368.49 331.531 1367.22 331.531C1363.39 331.531 1361.47 334.427 1361.47 340.219V356H1354.44V325.562ZM1376.38 340.562C1376.38 336.167 1377.95 332.427 1381.09 329.344C1384.24 326.26 1388.07 324.719 1392.59 324.719C1397.14 324.719 1400.99 326.271 1404.16 329.375C1407.28 332.479 1408.84 336.292 1408.84 340.812C1408.84 345.375 1407.27 349.198 1404.12 352.281C1400.96 355.344 1397.07 356.875 1392.47 356.875C1387.91 356.875 1384.08 355.312 1381 352.188C1377.92 349.104 1376.38 345.229 1376.38 340.562ZM1383.56 340.688C1383.56 343.729 1384.38 346.135 1386 347.906C1387.67 349.698 1389.86 350.594 1392.59 350.594C1395.34 350.594 1397.54 349.708 1399.19 347.938C1400.83 346.167 1401.66 343.802 1401.66 340.844C1401.66 337.885 1400.83 335.521 1399.19 333.75C1397.52 331.958 1395.32 331.062 1392.59 331.062C1389.91 331.062 1387.73 331.958 1386.06 333.75C1384.4 335.542 1383.56 337.854 1383.56 340.688Z" fill="black"/>
<path d="M1105.09 756.594V798H1097.81V756.594H1086.72V749.75H1116.16V756.594H1105.09ZM1121.31 745.219H1128.34V770.094C1130.84 767.844 1133.6 766.719 1136.62 766.719C1140.06 766.719 1142.81 767.833 1144.88 770.062C1146.62 772 1147.5 775.094 1147.5 779.344V798H1140.47V780C1140.47 777.562 1140.03 775.802 1139.16 774.719C1138.3 773.615 1136.92 773.062 1135 773.062C1132.54 773.062 1130.81 773.823 1129.81 775.344C1128.83 776.885 1128.34 779.531 1128.34 783.281V798H1121.31V745.219ZM1156.44 767.562H1163.47V770.281C1164.76 768.927 1165.91 768 1166.91 767.5C1167.93 766.979 1169.14 766.719 1170.53 766.719C1172.39 766.719 1174.32 767.323 1176.34 768.531L1173.12 774.969C1171.79 774.01 1170.49 773.531 1169.22 773.531C1165.39 773.531 1163.47 776.427 1163.47 782.219V798H1156.44V767.562ZM1207.66 784.438H1185.84C1186.03 786.938 1186.84 788.927 1188.28 790.406C1189.72 791.865 1191.56 792.594 1193.81 792.594C1195.56 792.594 1197.01 792.177 1198.16 791.344C1199.28 790.51 1200.56 788.969 1202 786.719L1207.94 790.031C1207.02 791.594 1206.05 792.938 1205.03 794.062C1204.01 795.167 1202.92 796.083 1201.75 796.812C1200.58 797.521 1199.32 798.042 1197.97 798.375C1196.61 798.708 1195.15 798.875 1193.56 798.875C1189.02 798.875 1185.38 797.417 1182.62 794.5C1179.88 791.562 1178.5 787.667 1178.5 782.812C1178.5 778 1179.83 774.104 1182.5 771.125C1185.19 768.188 1188.75 766.719 1193.19 766.719C1197.67 766.719 1201.21 768.146 1203.81 771C1206.4 773.833 1207.69 777.76 1207.69 782.781L1207.66 784.438ZM1200.44 778.688C1199.46 774.938 1197.09 773.062 1193.34 773.062C1192.49 773.062 1191.69 773.198 1190.94 773.469C1190.19 773.719 1189.5 774.094 1188.88 774.594C1188.27 775.073 1187.75 775.656 1187.31 776.344C1186.88 777.031 1186.54 777.812 1186.31 778.688H1200.44ZM1243.09 784.438H1221.28C1221.47 786.938 1222.28 788.927 1223.72 790.406C1225.16 791.865 1227 792.594 1229.25 792.594C1231 792.594 1232.45 792.177 1233.59 791.344C1234.72 790.51 1236 788.969 1237.44 786.719L1243.38 790.031C1242.46 791.594 1241.49 792.938 1240.47 794.062C1239.45 795.167 1238.35 796.083 1237.19 796.812C1236.02 797.521 1234.76 798.042 1233.41 798.375C1232.05 798.708 1230.58 798.875 1229 798.875C1224.46 798.875 1220.81 797.417 1218.06 794.5C1215.31 791.562 1213.94 787.667 1213.94 782.812C1213.94 778 1215.27 774.104 1217.94 771.125C1220.62 768.188 1224.19 766.719 1228.62 766.719C1233.1 766.719 1236.65 768.146 1239.25 771C1241.83 773.833 1243.12 777.76 1243.12 782.781L1243.09 784.438ZM1235.88 778.688C1234.9 774.938 1232.53 773.062 1228.78 773.062C1227.93 773.062 1227.12 773.198 1226.38 773.469C1225.62 773.719 1224.94 774.094 1224.31 774.594C1223.71 775.073 1223.19 775.656 1222.75 776.344C1222.31 777.031 1221.98 777.812 1221.75 778.688H1235.88ZM1287.81 752.344V760.969C1283.6 757.448 1279.25 755.688 1274.75 755.688C1269.79 755.688 1265.61 757.469 1262.22 761.031C1258.8 764.573 1257.09 768.906 1257.09 774.031C1257.09 779.094 1258.8 783.365 1262.22 786.844C1265.64 790.323 1269.82 792.062 1274.78 792.062C1277.34 792.062 1279.52 791.646 1281.31 790.812C1282.31 790.396 1283.34 789.833 1284.41 789.125C1285.49 788.417 1286.62 787.562 1287.81 786.562V795.344C1283.65 797.698 1279.27 798.875 1274.69 798.875C1267.79 798.875 1261.91 796.469 1257.03 791.656C1252.18 786.802 1249.75 780.948 1249.75 774.094C1249.75 767.948 1251.78 762.469 1255.84 757.656C1260.84 751.76 1267.31 748.812 1275.25 748.812C1279.58 748.812 1283.77 749.99 1287.81 752.344ZM1294.25 782.562C1294.25 778.167 1295.82 774.427 1298.97 771.344C1302.11 768.26 1305.95 766.719 1310.47 766.719C1315.01 766.719 1318.86 768.271 1322.03 771.375C1325.16 774.479 1326.72 778.292 1326.72 782.812C1326.72 787.375 1325.15 791.198 1322 794.281C1318.83 797.344 1314.95 798.875 1310.34 798.875C1305.78 798.875 1301.96 797.312 1298.88 794.188C1295.79 791.104 1294.25 787.229 1294.25 782.562ZM1301.44 782.688C1301.44 785.729 1302.25 788.135 1303.88 789.906C1305.54 791.698 1307.74 792.594 1310.47 792.594C1313.22 792.594 1315.42 791.708 1317.06 789.938C1318.71 788.167 1319.53 785.802 1319.53 782.844C1319.53 779.885 1318.71 777.521 1317.06 775.75C1315.4 773.958 1313.2 773.062 1310.47 773.062C1307.78 773.062 1305.6 773.958 1303.94 775.75C1302.27 777.542 1301.44 779.854 1301.44 782.688ZM1341.22 745.219V798H1334.19V745.219H1341.22ZM1357.16 767.562V785.031C1357.16 790.073 1359.15 792.594 1363.12 792.594C1367.1 792.594 1369.09 790.073 1369.09 785.031V767.562H1376.12V785.188C1376.12 787.625 1375.82 789.729 1375.22 791.5C1374.64 793.083 1373.62 794.51 1372.19 795.781C1369.81 797.844 1366.79 798.875 1363.12 798.875C1359.48 798.875 1356.47 797.844 1354.09 795.781C1352.64 794.51 1351.6 793.083 1351 791.5C1350.42 790.083 1350.12 787.979 1350.12 785.188V767.562H1357.16ZM1385 767.562H1392.03V770.375C1393.39 768.958 1394.54 768 1395.5 767.5C1396.52 766.979 1397.8 766.719 1399.34 766.719C1402.78 766.719 1405.5 768.219 1407.5 771.219C1409.71 768.219 1412.7 766.719 1416.47 766.719C1423.32 766.719 1426.75 770.875 1426.75 779.188V798H1419.69V781.094C1419.69 778.177 1419.33 776.115 1418.62 774.906C1417.9 773.677 1416.7 773.062 1415.03 773.062C1413.09 773.062 1411.68 773.792 1410.78 775.25C1409.91 776.708 1409.47 779.052 1409.47 782.281V798H1402.41V781.188C1402.41 775.771 1400.84 773.062 1397.72 773.062C1395.74 773.062 1394.29 773.802 1393.38 775.281C1392.48 776.76 1392.03 779.094 1392.03 782.281V798H1385V767.562ZM1435.62 767.562H1442.69V770.375C1445.15 767.938 1447.92 766.719 1451 766.719C1454.54 766.719 1457.3 767.833 1459.28 770.062C1460.99 771.958 1461.84 775.052 1461.84 779.344V798H1454.78V781C1454.78 778 1454.36 775.927 1453.53 774.781C1452.72 773.615 1451.24 773.031 1449.09 773.031C1446.76 773.031 1445.1 773.802 1444.12 775.344C1443.17 776.865 1442.69 779.521 1442.69 783.312V798H1435.62V767.562ZM1479.38 749.75V798H1472.09V749.75H1479.38ZM1513.31 768.875V778.219C1511.71 776.26 1510.27 774.917 1509 774.188C1507.75 773.438 1506.28 773.062 1504.59 773.062C1501.95 773.062 1499.75 773.99 1498 775.844C1496.25 777.698 1495.38 780.021 1495.38 782.812C1495.38 785.667 1496.22 788.01 1497.91 789.844C1499.61 791.677 1501.79 792.594 1504.44 792.594C1506.12 792.594 1507.61 792.229 1508.91 791.5C1510.16 790.792 1511.62 789.417 1513.31 787.375V796.656C1510.46 798.135 1507.6 798.875 1504.75 798.875C1500.04 798.875 1496.1 797.354 1492.94 794.312C1489.77 791.25 1488.19 787.448 1488.19 782.906C1488.19 778.365 1489.79 774.531 1493 771.406C1496.21 768.281 1500.15 766.719 1504.81 766.719C1507.81 766.719 1510.65 767.438 1513.31 768.875ZM1518.69 782.562C1518.69 778.167 1520.26 774.427 1523.41 771.344C1526.55 768.26 1530.39 766.719 1534.91 766.719C1539.45 766.719 1543.3 768.271 1546.47 771.375C1549.59 774.479 1551.16 778.292 1551.16 782.812C1551.16 787.375 1549.58 791.198 1546.44 794.281C1543.27 797.344 1539.39 798.875 1534.78 798.875C1530.22 798.875 1526.4 797.312 1523.31 794.188C1520.23 791.104 1518.69 787.229 1518.69 782.562ZM1525.88 782.688C1525.88 785.729 1526.69 788.135 1528.31 789.906C1529.98 791.698 1532.18 792.594 1534.91 792.594C1537.66 792.594 1539.85 791.708 1541.5 789.938C1543.15 788.167 1543.97 785.802 1543.97 782.844C1543.97 779.885 1543.15 777.521 1541.5 775.75C1539.83 773.958 1537.64 773.062 1534.91 773.062C1532.22 773.062 1530.04 773.958 1528.38 775.75C1526.71 777.542 1525.88 779.854 1525.88 782.688ZM1558.62 767.562H1565.69V770.375C1568.15 767.938 1570.92 766.719 1574 766.719C1577.54 766.719 1580.3 767.833 1582.28 770.062C1583.99 771.958 1584.84 775.052 1584.84 779.344V798H1577.78V781C1577.78 778 1577.36 775.927 1576.53 774.781C1575.72 773.615 1574.24 773.031 1572.09 773.031C1569.76 773.031 1568.1 773.802 1567.12 775.344C1566.17 776.865 1565.69 779.521 1565.69 783.312V798H1558.62V767.562ZM1611.44 772.75L1605.62 775.844C1604.71 773.969 1603.57 773.031 1602.22 773.031C1601.57 773.031 1601.02 773.25 1600.56 773.688C1600.1 774.104 1599.88 774.646 1599.88 775.312C1599.88 776.479 1601.23 777.635 1603.94 778.781C1607.67 780.385 1610.18 781.865 1611.47 783.219C1612.76 784.573 1613.41 786.396 1613.41 788.688C1613.41 791.625 1612.32 794.083 1610.16 796.062C1608.05 797.938 1605.51 798.875 1602.53 798.875C1597.43 798.875 1593.81 796.385 1591.69 791.406L1597.69 788.625C1598.52 790.083 1599.16 791.01 1599.59 791.406C1600.45 792.198 1601.47 792.594 1602.66 792.594C1605.03 792.594 1606.22 791.51 1606.22 789.344C1606.22 788.094 1605.3 786.927 1603.47 785.844C1602.76 785.49 1602.05 785.146 1601.34 784.812C1600.64 784.479 1599.92 784.135 1599.19 783.781C1597.15 782.781 1595.71 781.781 1594.88 780.781C1593.81 779.51 1593.28 777.875 1593.28 775.875C1593.28 773.229 1594.19 771.042 1596 769.312C1597.85 767.583 1600.1 766.719 1602.75 766.719C1606.65 766.719 1609.54 768.729 1611.44 772.75Z" fill="black"/>
<path d="M1099.06 1271.41V1291H1091.78V1242.75H1100.03C1104.07 1242.75 1107.12 1243.03 1109.19 1243.59C1111.27 1244.16 1113.1 1245.22 1114.69 1246.78C1117.46 1249.49 1118.84 1252.91 1118.84 1257.03C1118.84 1261.45 1117.36 1264.95 1114.41 1267.53C1111.45 1270.11 1107.46 1271.41 1102.44 1271.41H1099.06ZM1099.06 1264.66H1101.78C1108.47 1264.66 1111.81 1262.08 1111.81 1256.94C1111.81 1251.96 1108.36 1249.47 1101.47 1249.47H1099.06V1264.66ZM1125 1238.22H1132.03V1263.09C1134.53 1260.84 1137.29 1259.72 1140.31 1259.72C1143.75 1259.72 1146.5 1260.83 1148.56 1263.06C1150.31 1265 1151.19 1268.09 1151.19 1272.34V1291H1144.16V1273C1144.16 1270.56 1143.72 1268.8 1142.84 1267.72C1141.99 1266.61 1140.6 1266.06 1138.69 1266.06C1136.23 1266.06 1134.5 1266.82 1133.5 1268.34C1132.52 1269.89 1132.03 1272.53 1132.03 1276.28V1291H1125V1238.22ZM1158.69 1275.56C1158.69 1271.17 1160.26 1267.43 1163.41 1264.34C1166.55 1261.26 1170.39 1259.72 1174.91 1259.72C1179.45 1259.72 1183.3 1261.27 1186.47 1264.38C1189.59 1267.48 1191.16 1271.29 1191.16 1275.81C1191.16 1280.38 1189.58 1284.2 1186.44 1287.28C1183.27 1290.34 1179.39 1291.88 1174.78 1291.88C1170.22 1291.88 1166.4 1290.31 1163.31 1287.19C1160.23 1284.1 1158.69 1280.23 1158.69 1275.56ZM1165.88 1275.69C1165.88 1278.73 1166.69 1281.14 1168.31 1282.91C1169.98 1284.7 1172.18 1285.59 1174.91 1285.59C1177.66 1285.59 1179.85 1284.71 1181.5 1282.94C1183.15 1281.17 1183.97 1278.8 1183.97 1275.84C1183.97 1272.89 1183.15 1270.52 1181.5 1268.75C1179.83 1266.96 1177.64 1266.06 1174.91 1266.06C1172.22 1266.06 1170.04 1266.96 1168.38 1268.75C1166.71 1270.54 1165.88 1272.85 1165.88 1275.69ZM1206.25 1267.12V1291H1199.22V1267.12H1196.22V1260.56H1199.22V1249.41H1206.25V1260.56H1211.72V1267.12H1206.25ZM1215.5 1275.56C1215.5 1271.17 1217.07 1267.43 1220.22 1264.34C1223.36 1261.26 1227.2 1259.72 1231.72 1259.72C1236.26 1259.72 1240.11 1261.27 1243.28 1264.38C1246.41 1267.48 1247.97 1271.29 1247.97 1275.81C1247.97 1280.38 1246.4 1284.2 1243.25 1287.28C1240.08 1290.34 1236.2 1291.88 1231.59 1291.88C1227.03 1291.88 1223.21 1290.31 1220.12 1287.19C1217.04 1284.1 1215.5 1280.23 1215.5 1275.56ZM1222.69 1275.69C1222.69 1278.73 1223.5 1281.14 1225.12 1282.91C1226.79 1284.7 1228.99 1285.59 1231.72 1285.59C1234.47 1285.59 1236.67 1284.71 1238.31 1282.94C1239.96 1281.17 1240.78 1278.8 1240.78 1275.84C1240.78 1272.89 1239.96 1270.52 1238.31 1268.75C1236.65 1266.96 1234.45 1266.06 1231.72 1266.06C1229.03 1266.06 1226.85 1266.96 1225.19 1268.75C1223.52 1270.54 1222.69 1272.85 1222.69 1275.69ZM1281.59 1265.88H1301.53V1267.47C1301.53 1271.09 1301.1 1274.3 1300.25 1277.09C1299.42 1279.68 1298.01 1282.09 1296.03 1284.34C1291.55 1289.39 1285.85 1291.91 1278.94 1291.91C1272.19 1291.91 1266.41 1289.47 1261.59 1284.59C1256.78 1279.7 1254.38 1273.82 1254.38 1266.97C1254.38 1259.97 1256.82 1254.03 1261.72 1249.16C1266.61 1244.26 1272.57 1241.81 1279.59 1241.81C1283.36 1241.81 1286.89 1242.58 1290.16 1244.12C1293.28 1245.67 1296.35 1248.17 1299.38 1251.62L1294.19 1256.59C1290.23 1251.32 1285.41 1248.69 1279.72 1248.69C1274.61 1248.69 1270.33 1250.45 1266.88 1253.97C1263.42 1257.43 1261.69 1261.76 1261.69 1266.97C1261.69 1272.34 1263.61 1276.77 1267.47 1280.25C1271.07 1283.48 1274.98 1285.09 1279.19 1285.09C1282.77 1285.09 1285.99 1283.89 1288.84 1281.47C1291.7 1279.03 1293.29 1276.11 1293.62 1272.72H1281.59V1265.88ZM1309.38 1260.56H1316.41V1263.28C1317.7 1261.93 1318.84 1261 1319.84 1260.5C1320.86 1259.98 1322.07 1259.72 1323.47 1259.72C1325.32 1259.72 1327.26 1260.32 1329.28 1261.53L1326.06 1267.97C1324.73 1267.01 1323.43 1266.53 1322.16 1266.53C1318.32 1266.53 1316.41 1269.43 1316.41 1275.22V1291H1309.38V1260.56ZM1341.34 1260.56V1291H1334.31V1260.56H1341.34ZM1333.25 1247.91C1333.25 1246.68 1333.7 1245.61 1334.59 1244.72C1335.49 1243.82 1336.56 1243.38 1337.81 1243.38C1339.08 1243.38 1340.17 1243.82 1341.06 1244.72C1341.96 1245.59 1342.41 1246.67 1342.41 1247.94C1342.41 1249.21 1341.96 1250.29 1341.06 1251.19C1340.19 1252.08 1339.11 1252.53 1337.84 1252.53C1336.57 1252.53 1335.49 1252.08 1334.59 1251.19C1333.7 1250.29 1333.25 1249.2 1333.25 1247.91ZM1372.69 1238.22H1379.75V1291H1372.69V1287.81C1369.92 1290.52 1366.78 1291.88 1363.28 1291.88C1359.11 1291.88 1355.66 1290.35 1352.91 1287.31C1350.18 1284.21 1348.81 1280.33 1348.81 1275.69C1348.81 1271.15 1350.18 1267.35 1352.91 1264.31C1355.61 1261.25 1359.02 1259.72 1363.12 1259.72C1366.69 1259.72 1369.88 1261.18 1372.69 1264.09V1238.22ZM1356 1275.69C1356 1278.6 1356.78 1280.98 1358.34 1282.81C1359.95 1284.67 1361.97 1285.59 1364.41 1285.59C1367.01 1285.59 1369.11 1284.7 1370.72 1282.91C1372.32 1281.05 1373.12 1278.7 1373.12 1275.84C1373.12 1272.99 1372.32 1270.64 1370.72 1268.78C1369.11 1266.97 1367.03 1266.06 1364.47 1266.06C1362.05 1266.06 1360.03 1266.98 1358.41 1268.81C1356.8 1270.67 1356 1272.96 1356 1275.69Z" fill="black"/>
</svg>
